<mxfile host="app.diagrams.net" agent="Mozilla/5.0 (Windows NT 10.0; Win64; x64) AppleWebKit/537.36 (KHTML, like Gecko) Chrome/128.0.0.0 Safari/537.36" version="24.7.13">
  <diagram name="Page-1" id="RaKG5plrrmhaLrVrO8CO">
    <mxGraphModel dx="2607" dy="1353" grid="1" gridSize="10" guides="1" tooltips="1" connect="1" arrows="1" fold="1" page="1" pageScale="1" pageWidth="850" pageHeight="1100" math="0" shadow="0">
      <root>
        <mxCell id="0" />
        <mxCell id="1" parent="0" />
        <mxCell id="CZ1LiMqnYSPfAvN4lERl-1" value="" style="shape=image;imageAspect=0;aspect=fixed;verticalLabelPosition=bottom;verticalAlign=top;image=data:image/png,iVBORw0KGgoAAAANSUhEUgAAAIAAAACACAYAAADDPmHLAAAABHNCSVQICAgIfAhkiAAAAAlwSFlzAAADYAAAA2ABtMLWnQAAABl0RVh0U29mdHdhcmUAd3d3Lmlua3NjYXBlLm9yZ5vuPBoAAAsgSURBVHic7Z1prB5VGcd//0JLWURWK8hyQZQPLBKBFiOgYhQJtJQKWlBWAZFgQFBQgy0NKqBgiAgYVGQPiNACdQkIlsUEkApCNGFvENuCgCJbF9rHD2cg9TLn3PfMzPvOzJ3zS+bDnXPmOc+d+b8zZ32OzIyqkSRgV2AKMAnYNDvWq7ywelgGzAYuMrO76namDKpSAJLGAccD38A98C5wipn9qG4nilKZACTtD5wPDFVisF3MMrMz6naiCGOqMCJpBu6VOFSFvRYyU9J5dTtRhFJvgOxbfzlwaGUetZufAceZ2cq6HemVsm+AmaSHvyrHAFdJWr1uR3ql8BtA0lTgRkCBbAuAecADwPzs7zbzMLBxD/luAQ4ys6V99qc0hQQgaTzwOLCZJ8sK4FxgZhtuQq9IWgxM6DH7HcAUM3utjy6Vpugn4ET8D/9pYHcz++ZoevgF2Au4TVKj+z6i3wBZW38xsH5O8nJgopk9VIFvjSPyDfAWDwF7m9nzfXCpNEXeAHuR//ABzhytD38EQg93J+AuSb43Zq0UEcA0z/lHgLNK+NJmpgP3B9K3Be6W9P4B+dMzRQSwp+f8XDN7s4wzLebfwCdxLR4fQzgRbDcIh3qliAB8ffwPlHGk7ZjZq8A+wG8D2TYB7pS082C8GpkoAUhaB3iXJ7nTAgAwsyXAVOD6QLYNgTsk7TEYr8LEvgE29JxfZmbPlHVmNGBmy4GDgV8Gsq0L/F7S3oPxyk+sAHy9ftVPKmgxZrYC+BLw40C2tYCbJfkq1QOhktHAxDsxx4nA9wLZxgG/knTYgNx6B0kAfcbMTgdOC2RZDbhM0vEDcun/SAIYAGb2A9xMKd+nUsCFkkJC6QtJAAPCzC4GDscNlPk4W1Lok1E5SQADxMyuBA7CTSr18W1JF2STbfpOEsCAMbPZwGTg9UC2E4BLJa3Wb3+SAGrAzG4F9gb+G8h2BHBtNvraN5IAasLM7sGNrL4YyHYgMEfSmv3yIwmgRsxsPvAxYFEg2z64XkNfF3wpkgBqxsz+BuxBeL7knsDtkjaouvwkgAZgZk/iRPBoINuuuJHE91ZZdhJAQzCzZ3G/9L8Gsm2Pm1OwZVXlJgE0iGze4MeBewPZtsGJ4INVlJkEEMcrnvObVFWAmf0H+BRuWrmPzXHzDHcsW14SQBwPes4fW2Uh2eyifXELTHxMAOZJmlSmrCSAOOZ7zk+WdFiVnTbZ7KJpwLWBbOsDf5D0iaLlRK0LkDSEW/gxnKVmNr6oE21B0l7A7YEszwO3Eh7wiWUM8DlgjUCeJcCBZvabWONJABFkAzTz8M+MrpPlwB5mdl/MRekTEIG5X8uRwKt1+5LDWODk2IuSACIxs6eAr9Xth4dpknyrtnJJAiiAmf0c+DTwj7p9GcbqwLtjLkgCKIiZ3QbsAFxCeG1go0mVwIqQtDmwC/ABBvPDOhP3ix/OVma2oFcjSQAtRdIS8puGUQJIn4COkwTQcZIAOk4SQMdJAug4SQAdJwmg4yQBdJwkgI6TBNBxkgA6ThJAx0kC6DhJAB0nCaDjJAF0nCSAjpME0HGSADIkrSWpK7udvk3nBSBpE0n3AS8DT0s6W9Ladfs1KDovAOCHwETcDNtxuLCuJ9Tq0QDptAAkbQ18ISdp90H7UhedFgAu5EoeQ4N0ok66LoBtPeefGKgXNZIEkE8oWteoIgkgn84IoDW7XOch6QhcpM1XgQvM7LFIEz4BBO1I2gb4Km4l7p1mFtofqNmYWc8HrnJkOceSGDtlD9wGC5cN8+F1YNsIG+t7/hcDNgpctzUuWtiq+a8Bxgz4Hizx+D4UY6etn4AzcJsvrMqawMwIG75f/0tm9kLgutOBdYadO5iW7praOgFImg7M8CTHxOvzBVoc6fvvK+NUScNF2XhaJQBJEwnvx3drhLlC33/CARwvkdSqTqTWCCALwHAT4ItD8CjwkwiTRVsAFwfyjANmS9oqwo9aaYUAssGZmwFfpOyXgMlm5gvlmkchAWRRPPfLysxjI+AWSetG+FIbjRdAFpvvKmAnT5bluCCJj0fYHIML5ZLHiH0AZvYE8Nms7Dy2w2330vc9f8rSeAEA38dtyOzjBDP7Y6TNLckPr7KSHruBzWwe8JVAln2AcyP9GjxN7gcADvOU99ZxfkG7n/HYe6qArXNH8PGY1A9QAEkfxYVg8/E74JSC5qvsAj4VmBtIv7BMMOd+00gBZNHIZuMPkPx3YLq5XbqLUJkAzGwlriPoYU+WscCvs+7jxtE4AUgaj4uTv7Enywu4Gn9oz72RqHQQKGsZTAae82TZAJjbxKlmjRMALka+b6LGMmCauXi9ZSjaCeTFzJ7BVVaXBMr8fFH7/aKJAjgwkDbLzO4uY1zSOsD7PMmlhoHN7F7cWIGP0P9WC00UwJ8DacdI8n0aesU3BvAa8M8yhrN9/Y4LZAn9b7XQRAFcCbzhSRvCdbWW2ZrF+/q3rH1VBEljgRtwu3rlsRS4vKj9ftE4AZjbP+9wXJs2j5GahyPRr1lAF+G2fPNxdAV1l8ppnAAAzOx63Ji/j8MlnVbQfOUVQEknA0cHspxlZlcVtd9XGt4TeI2nPMNtzLR/AZt/8dg7pKCP+2W++Py8gSwqe+oJjOcowLcJ0hjgakkfirRZdCLIO5C0A9l0ME+WB4FDy9Qt+k2jBWBu77yp+LdmWRs39DqhF3uSNsuuySPqEyDpPbgOK9+27ouAKWb2eozdQdNoAQCY2WJgCq6ZlsfmwJysB3EkfN//hRYxl0DSGsAc3KhiHm/gPk/P9mqzLhovAAAzewj4Iv6WwW7AL3owVVUF8FLgI540A440s8a1+fNohQAAzGwO8K1AlkMkHTCCmdJNQElTgEMCWWaZ2XW92qub1ggAwMzOIdyZMtImzlX0ARwVSLvOzGZF2KqdVgkg41jgT560N0e4tgoB+KaB3Q8cEWGnEbROAGa2DDgAWJCTfLXvuqySuIUnOaYOkFfGs8DUrNXSKlonAAAz+xeuEnYLbl3gc8BJZhbaat23n98y8rfC85U9BzgeWJiVPReYZGaLerXRJFq7OHSV5iGS1ENni68D6MnYmUVmdrGknza5g6dXWvkGGE6PD6LqWUCtf/gwSgTQI52PBZBHEkCJUcDRQJcE4PvOpzdAR7gz59zjuPZ7Z+mSAC4DHlnl7xXA183M17HTCVrbDIzFzB6T9GHgy8BawJVZU7LTdEYAAGb2JnBh3X40iS59AhI5JAF0nCSAjpME0HGSADpOEkDHSQLoOLEC8A2BqqwjiWh89zxqmDpWAC96zo+T5JtulaiY7F77Vkj7nlEuUQIwFwrFt4BilxhbiVL47vUr2TPqmSJ1gIWe80kAg8N3r33PxksRAdzlOb+fpE6NLdRBdo/39STfE2uviABu9JzfgfDKnUQ1nArs6Em7KdaYYuc2ZuFZFuN23BjOcmBitpYvUTGStgfmk18BfAWYYGa+8Dq5RL8BsoUZ53iSxwI3Stot1m4ijKRdcG9fX+3/vNiHDwXeAJkz43HTqTbzZFmBi6E708yWRheQeJss+NR3cJ9XXx3rOWCb2BYAFBRA5thUnCJDnUALgHnAA7hX14JChXWPLXA1/Z1xgae2HiH/9MIrkkvGqTmDcKTsdPT/+G6pZ1hSAAKuaMBN6OpxBSUDUFUVsWoGbrOFum9IV46VwIxKnl0VRjIR7I9bZVv3zRntx9MUCI/XdwFkIhgHnISLuVv3jRptxyLcBhlrVPnMCrcCQmQbPe2KW749Cdg0O9arvLDRycu4fv2FuJVLNwP3m9ucolL+BwFXOue4wG1kAAAAAElFTkSuQmCC;imageBackground=default;" vertex="1" parent="1">
          <mxGeometry x="30" y="230" width="128" height="128" as="geometry" />
        </mxCell>
        <mxCell id="CZ1LiMqnYSPfAvN4lERl-2" value="" style="endArrow=classic;html=1;rounded=0;exitX=1.031;exitY=0.414;exitDx=0;exitDy=0;exitPerimeter=0;" edge="1" parent="1" source="CZ1LiMqnYSPfAvN4lERl-1">
          <mxGeometry width="50" height="50" relative="1" as="geometry">
            <mxPoint x="160" y="310" as="sourcePoint" />
            <mxPoint x="280" y="120" as="targetPoint" />
            <Array as="points">
              <mxPoint x="200" y="283" />
              <mxPoint x="200" y="230" />
              <mxPoint x="200" y="120" />
            </Array>
          </mxGeometry>
        </mxCell>
        <mxCell id="CZ1LiMqnYSPfAvN4lERl-3" value="" style="endArrow=classic;html=1;rounded=0;exitX=1.031;exitY=0.578;exitDx=0;exitDy=0;exitPerimeter=0;entryX=0;entryY=0.5;entryDx=0;entryDy=0;" edge="1" parent="1" source="CZ1LiMqnYSPfAvN4lERl-1" target="CZ1LiMqnYSPfAvN4lERl-6">
          <mxGeometry width="50" height="50" relative="1" as="geometry">
            <mxPoint x="172" y="293" as="sourcePoint" />
            <mxPoint x="280" y="410" as="targetPoint" />
            <Array as="points">
              <mxPoint x="200" y="304" />
              <mxPoint x="200" y="454" />
            </Array>
          </mxGeometry>
        </mxCell>
        <mxCell id="CZ1LiMqnYSPfAvN4lERl-20" style="edgeStyle=orthogonalEdgeStyle;rounded=0;orthogonalLoop=1;jettySize=auto;html=1;entryX=0;entryY=0.5;entryDx=0;entryDy=0;" edge="1" parent="1" source="CZ1LiMqnYSPfAvN4lERl-6" target="CZ1LiMqnYSPfAvN4lERl-9">
          <mxGeometry relative="1" as="geometry" />
        </mxCell>
        <mxCell id="CZ1LiMqnYSPfAvN4lERl-6" value="" style="shape=image;imageAspect=0;aspect=fixed;verticalLabelPosition=bottom;verticalAlign=top;image=data:image/png,iVBORw0KGgoAAAANSUhEUgAAAIAAAACACAYAAADDPmHLAAAACXBIWXMAABOvAAATrwFj5o7DAAAAGXRFWHRTb2Z0d2FyZQB3d3cuaW5rc2NhcGUub3Jnm+48GgAACpNJREFUeJztnX2wVkUdxz8XbmKKAgZO+DLgS9SMkTWFMV4pyRq6hVYW4R8pU1kzTklN9GIUSdPL6F8YpE5ZlviSoWVFVmNjTsqIlL1cRaMIC0GyEXm9gMS99/TH797huefZPWf3vOw5z9n9zOwMnLtnd59zvmdffru/XQjkZQrwc+Ag8CQwt9riBFyzFohawj5EFAEPmAYMMloAEbCkykIF3PEV2l9+BGysslABN3QBm1ELIALeUFA+U4B7gb3AX4A5BaUbyEkP+pcfASsKyufeWLq7gEkFpR3IwXdIFsB/gZcVkE+/Iu3eAtIN5OBYYDfJAoiA+QXkpUp3QQHpAjDGMN4E4LPAI4iy0354p4V+4B5gsuHzeA8w0SDeIsP0KqPLIM4C4GbgFSWXpQ7cA3zQIN79wLsM4h0GTkHabRNOABYDrwXGDl9Tfe3rge3D//4PcAsljTwWA0NU/4W6CnsMnskrgSOKe/+mSfMqgzQBuoE/Ziz3IUQ0hXIRMJCxQJ0a/mzwXJZo7p2LfJXx6+sN0oT0UUVauMEwHyPGAH05C9Rp4UXkJaShei5bkOb0ek3arzZItxIBdGuunw+8TnG9H1iJTHoMZsmwpvQDjyE9+yRej/q53I68hNXA5xV/vwL4UkraG4A/AOelxFNxCOkHFMZy2hV2hGyFaxIraH8uQ8CZLXFU7fhWzEZc44EvAj8C1gwH1df+aMvfbwDOyfez2vmBItOHi86kw+hGetzx5/L7WLyrFXEi4G0Z81WlVbod4HjFteeLyrRD6UVGAHFWx/5/FzL8i3NF4SUqAFNDUED9Ag8itoNWXgR+rYj7fqSKt+WA4lp/hnSUBAGYMQm4WHH9Z8gCkDi3Ka6NR0RgS1xMu5AOa6moOh9rys60hkxFTOBPoW6L52nuOwZ4QRF/F7AKu870ZOTZ7wH+hNlQNTc+C2Ac8rWvAf6Hftz9HEfNtSpWJdwbIZbD5cAZJfyG3PgogDcC3wJ2YmZ4uS4lvTcZpjMIrAM+TrY+Qin4IoAzkGVd/8TO6rYXONUg/d9YprsPuBV4K2YTdaXRZAGcCHwYGb/bTnQNAQ8iFkETJgLfBvZb5hMB/wK+Cpyd47dmpmkCGANcgKziyfIytiJV/lkZ8z8WMd6sRT2TmBYeBz6Fwyn5pghgEvB11LN0aWE3Ipgeiq2OTweWApsylOkQYiY+t8DyKGmCAMYiwyabB3wEWeyxEPlqy2Y2cCNiPLIp50FKFkETBHAh5g+0D/gMalOvC8YhRqJfkDz0bA03FpFxsAR2LlGZiTehBhiLdJ6a2AQcQL0uoTCaIACQYVgTO4GlvnxojgBGCMNAS5omgFbyGoJ+h7nf30Skig+GoJqSxxR8mkH6wRTcIXQhTcR3kWlXk5d1fUqaNpNBDwAfAo7TpHUy8G5gRpYflwXfBNDKy4HLgF+R7BexneTp4JUJ90bA08A1pNckvUivf6QJWpbhN1njswBaqXpByFjg2VgaAzioCYIARjMJeIn2Z3KnJv77FHEj7BeG9mrS+YZlOlp0jiFFcxLwZspd8DCIOEj+IyXeDEY7X5rcvxsZwn0gdv29yKgivi5Q9aL7gZ+mlC2OTjCXI03BkGV6xhRZA8xBqj7bYVCWMIQMnXR8jeShX9L98zX3fDQWbzKyLDweT7VQNIkJyKSPrqwXWaZnRZEC+KsirbJF8CpFOWZgNu7X3d+N+EbE48cdZnSOIbYv7MqUcsb9ETLhYjLI9aLHLk2e0zEbW+vuH0DMsHEuYLRrmKrafhZ4yCDvVhal/P1SCmhSXQjgAQd5tLIL8c+L8zjpzp9J94O6Gu/i6Es/Bxn/x7kDu/b6LNKXfx9PNj8DI4psAkbWtWcxh9qEAdLXzc9B9gBQje9N7ofy3MNbWa5JJx4etEzXmCqHgaofWpgzZAHoNoi4ENimuG66QcQIXYigTPs703P8lrAgJAN3IrVFnJtRW/VMO2unI67hTzO6T9Gab5wuZF+BFRS3MSUQaoA07sfsCz1M8hSu6TTxEWS52hMp+T2FNB/T8v7AIIBkFmImgLjnMIxem7DPMJ21w/d+wTD+IPBbpHOqcvVPJQggGdONIuMexfOAZwzuaw0DwKzh+ydgv7ppD7Lg1YoggHRst4o9hWTLnu4rnh3L9zRkOHrAIq0IMVu3ETqB2Unr3N2FtN0j9CBTzSZ8H2nH30H7XgDbESPRVOBzyDJyE96uuhgEkJ1HkZVEOuICecYi7Y8AdyMew6rVyfOBHyKzgscYprnFIv/GNgFvQeYmbDbA3IEMz1Qs09zzhCZ+2iIRVdiEzKaCDPvi28ebhHVYmo2bKICTMOu46YJqD+HpqCeYko6MmQXchN0M6cjZA5da3PMS8BPgEjLU9E0UwDxN2qbhe5p044dG7cXs0KhxyPoCE3ewnUhV/0uDcm4APsHRWiMTTRSA6XSwLuiagSnAfciCjz7EJGzLycCnkSNhdPlfhd5YtA34JvCaDHkraaIAQBZ7ZBHBY7jbvuVc1BNnuiHk5eTozLtaElYXrkWmZmeSvKK3leeQPXxV9v8y6EPa7kWx66oh5Bbk90RZM/NNACAnfW2uuhAprMbstJHV5Hj5EOwAdeUhxDUsiQj5+nMRBFBPIsSSmMQj2BmXlAQB1JfbSK7ebVcZKwkCqC+bkTG9ikNIRzE3QQD1RveV34cYnHITBFBvfoyYdOMU4hMAzRwGzkScKqY6ym8QOUNpJQXu4z/MbuRImGtarj1MgUvtmyaAmYjRxsUGT61chpwm2kPxBqOlwN8RE/MmZMeRXGN/EzrVFJxlurXIcH7WH10VTesDlP5l1Dx/a5omgFtQd5pcsAG9S1kaC5Hp5qU4PjOgjn2AQdS++yZsRBZcXIkswnTBILICaBXZ2v+ljN7woay+hBVV9gHic+I6d+2msIP2Z+3kXCCoZxNwNUePW4+QOfy6z97lQTVcdVV71bIJWIdsjjgLmexIWnkbyEkdBQBiAHG9r4CX1LEJCDgkCMBzggA8x0UfoBvZI9BZz9YxpvsT1pKyBXACso/NrLSIHU6E7EF4bdUFsaXsJmAxzX/5ID57y+hAg1XZAqjlwcglodtfsNaULQCfxvJJ+wvWlrIFsAbxqdtRcj5VMojsPXgJZhtR1goXo4DrSD9qPVARwQ7gOUEAnhME4DlBAJ4TBOA5QQCeEwTgOUEAnuPCEOTaV881ZfoGlk7ZAqjKV881ZfoGlkrZTcDHaP7LH+E8zI+ErQ1lC6DjfOVy0nG/t2wBVOmr55o8voGVUXYfoApfPdfk9Q2sFBejgI3IPriBGhLsAJ4TBOA5QQCeEwTgOUEAnhME4DlBAJ4TBOA5QQCeEwTgOUEAnhME4DlBAJ4TBOA5QQCeEwTgOUEAnhME4DlBAJ4TBOA5OgHsV1xrqmtXlZyquV7IoZAm6ASwTXFtNn5s+uiST2quq55/KXRprvcgBzfE2Y+sf38S83N8Au2MB3pRH4e3DZhGxV5GY4A+qj2Dz9fwZYP344S5iKdL1Q/Ep7AZOM7k5RRF/Hi2Vv4N7AHeib6pCBTHTmAeNdxVdQHwAtV/HU0O66n5RtMnAkuQk6ufp/oH1unhMLAVuBvZWKKyGvb/PWPJ6i68xrYAAAAASUVORK5CYII=;" vertex="1" parent="1">
          <mxGeometry x="418" y="390" width="128" height="128" as="geometry" />
        </mxCell>
        <mxCell id="CZ1LiMqnYSPfAvN4lERl-15" style="edgeStyle=orthogonalEdgeStyle;rounded=0;orthogonalLoop=1;jettySize=auto;html=1;entryX=0;entryY=0.5;entryDx=0;entryDy=0;" edge="1" parent="1" source="CZ1LiMqnYSPfAvN4lERl-7" target="CZ1LiMqnYSPfAvN4lERl-8">
          <mxGeometry relative="1" as="geometry" />
        </mxCell>
        <mxCell id="CZ1LiMqnYSPfAvN4lERl-7" value="" style="shape=image;imageAspect=0;aspect=fixed;verticalLabelPosition=bottom;verticalAlign=top;image=data:image/png,iVBORw0KGgoAAAANSUhEUgAAAIAAAACACAYAAADDPmHLAAAABHNCSVQICAgIfAhkiAAAAAlwSFlzAAADsQAAA7EB9YPtSQAAABl0RVh0U29mdHdhcmUAd3d3Lmlua3NjYXBlLm9yZ5vuPBoAAA+dSURBVHic7Z15lBTFGcB/iyyCoKssKiJEE0AOwRM1hy+iaIzG62mEFwhJJGhixHiBATSJeZhoFA1GRY0XOTQaT7xPwEg8gjFgwBswMcqCsHItILBM/vi6M9XV1TM9Pd3bx/TvvX473V1TXTv1dX1VX331FWSLQ4D3gQKwBXgU6KjcHw18Yt1vAaZp378cWGvdXwWM9fHMXsBU4E1gg/XdKI/VwIUlyrMD8Lj1/9vf2QAsAq62yptZnsb9g31Lub/ScH+Ada+X4d46oF2J540BNhq+F/WxFejsUabvlvnuRqvcUOafSyPdDNc+VT6v1O5tAdZYn1uATdr9ZmCbx7PGALfjbGHairXAZo97+v+o0xEp9xkAdSEWKgm8CBxufd4AXIKzmd8fmAx0Rd6EGcCDyv1vAGchzehq4NfAa4bn9ALexVn5W4G3gaYq/4dyrEP+p7963K8DLgKOBrazru2OtHTtlXQbgX0iKmNsjEYqogD8NMLnXI2zWZ0P9InweWHQBymnWu6rYi1RRHwO6BfxMxbh1Md9I35eWPSl+IIUgIVZUwFtxXqKnbBFwKAq8tqTYkfUZgswD1FjNp2AQ4F6n/k2A68brv+LYnk3GO6nnqGILt+uTLpq2EbxLZpTRT5HIB1PU2/9baQvgvV3oUe6Use1hmfO1tJkiskU/7FbI3xOWAIwjdIVaHdoDy+TzutYZnimQwCyNgw8Ufl8cmyl8M/cEvdWIeoF62+54Z2JF8slaF8uQcrooHzePrZS+Od+RA0chtMm04JYMW0bxqfAwYhQ74A/Pgb+Ek4x08ODFJu3BRE+JywVEAcOFZC1FmA8YpzpQml7eY5F1gRgCXB83IVIE1nrBOZUSC4AwWhRPu8aWymCsZvyuaU9ojNHAN3jKU9iWQ/MBP5ruPcBRWtaP8SS91bbFKsqBuA0ky8BeIS2n89Oy9EENBh+yCu1dAuBgV6/ekIYiNuaeEUdMq/s175ciwwDZmnXegDvIKMNmwKwmKJ/QZJoAHrjnP5fjzUdHPdblvTjWI8fdRROe0Cajm3ASHAPA98ELvP4h2uFU7B+nDIsQVrPNFgcdTZj6X9dAFYA97V5cZKFH8eOLogZN42VD1Lu+4F++TAwGGcj/QCblYhKaED0bNKOBqt86oTSnsDZWbMEthWnaecjcHcUk8Ra4G5kVPO8cv3UXACCoXrwLKW6yq8HeuLsoX8GfGRIuyf+1U4z4tiqMguxYextnfcHZ+9wtiGjBuBZnAsN8qN4zDH8Zn4ZhPS7TPnOothHa4+8uZWUqxU4z/DMOWo6P32AsYiLcd5ahM8YvE3JRyIrnQCGAEdVmHc74GLD9YKeqBxps3WnibdL3NuENNcA/8a9aKXa/IFgb/U8kmntakuODimf25Cm+hCcfYCNwL0UffqWIS3ACMQ72A/Lgev9JCzXB9Dt3of5LECWyYxHUG4HqHFyAahxcgGoccIa2nVDlhs3hpRf0lE7bF08UyUTtbybwxKAZ4ADQ8orbQxCXoAgCzfamq7AYOX8wzBUQAO1W/kgptk7gR3jLkgZOiPlVE3Js8JoAaJchJkWTkCMLs9hXo8XN90Rz6aeyrVWYHoU5t3ZwIQI8k0ao3Ha2nsA34mpLEGYCsyPQgA+Bf4RQb5JYwXwA+KJEVQtm4AbIB8GBqUd8ADprHyQcj8AtMtn+IIxiuJMHYhpeDqyondVLCUqTSNwEuLJZL/0hwIjcwEIxijtfBxwUxwFqYBnkDgD05Vro3IVEIwDlM+fADfHVZAKuRkpr82BuQAEQ/WReAfNyaICegKvIkMydcZ1A3CLlvYmKgtF24Tbd7GA00dgt1wAgqGagluryGccoov1euiEBKwcYp0fDPwQ/74AIMEhpxquq+WtywUgXkp1GFsRx06QoXUQQStrns47gfFyPdJDPwi3V/BdWKt3rL/ftg6/XsErgV+US5QLQLxsAib6THuPdYRKrgJqnFwAapxcAGqcXACCofbI0xZcQw2m2ZoLQDBUa9q+pEcI6pHy2izPBSAYLyufG0hPUI3LcMY8ejkfBgbjTuBU5Xwy4hb3CMmeDTxOu35nLgDBeAx4AmdU0uNw/8BJ5lHg8VwFBGck8FLchQjI3xCXtkyMAoYhLmiLPY6F+Av6VClrkAWbPyM9i2VXI+UdhlXmtKuAOuD3SOSMUtwOPIlzD8Ew+AyYgmwv9xVgL2SYdRrwNSXdFRSXesfBZuv5L6HtN5h2AdiP8pUP4gM3FHgoonJsxrmyug9OAXgIWVafONKuAo7UzpcjM2dLcMf4rTTCRk2QZAHoj8Qs/CPmOLz1uHvdxyAhUXsjBo+t2j2TQ0VPxFVqJtKMJ4WDgFesI9KVV9UGiOiq3X8ghDINxhk8aTNwDbATEuFqGsVdwO1jOe6tcF/R0qxFxvCDkXn1iUjMXNUV65gQyn+V9txDSic3Mlf5ftnNn6ohaQKgV756rMQ7WtmfDXld7pF2GyIwpnthCEEYArBU+f7SKsvjSdJUwGAkHJpXYKpGzB3XlUhPW+cGzL3vOpwbJ6h0QtRBGC1BNWzy+BwqSRIAU+W3IFufmbZw34xY5M5AdP4bhjRNSF/idCToUoshDYhVT931OwlCoMZsvjfKByVBBfTA3eyvR/bUw3rmPIr9gdsoRrushF2R5rnFyus9ZJtZkOify3Crg/0DPCcMFQDwReuIlCQIwJm4f/gjtDR1SM++a4D8dbogFasvbR+Au2/wqwD5hyUAkZMUQ9DfkWbeVkntkRZBpUBxK9VqWY95Y8kVuH+TRBpwwiIpfYAFwB+U83p8Bjk0UE/wOP6/xNnCzAUeDphXtfRF+iEP428Pg8AkQQWArGRZreXlZ3q1G/AjZPHjMopBHD9Bxs8TgF4+8umPGI7sZ29BTM1BCEMFPKd8/9mA5ShLUloAEN17l3atlGWuA3AJMuN3I9Jj707RGNQN2Xb9KqSzdw3mHcBsvoyzT/A85pFFW9Fb+RxZC5AkAeiI08sGvOPwNwJPI4aenXzkvT2yl/A8rBj5Bl7A6ew5FNjDR95R0erxOVSSJADDcW5e+RJmAWhAmvahhntN1vfmIhG2dfoiFb2X4d5inNbE7ZEQMHExR/lsUs2hkYQ+QDucOq+Aebu2OmReXzff3oOsoNXphyyr1pdfz8cc3mUfnIGg3yOYx28YfYCOyPB4rEdZQyMuAeiFLI9+EHGkVPNowhx+7ptaui24o3WYGAas075r2kwBZL2+mm4dInQT8FYfOqmxA0A8AjCE0sEOvCJuvKWlO8fHs2xO0L7bjDnM6/gS5WoFTvbxrNQIQFx9gNPwDnawFrjWcP1AnG/g61QWl+cxnB5Bu2BWM7dj3rAJ5Pfy0+KEQVfELjEFKWskxCUAHbTzVYgqGIfo4XcN3zleO78D8yRRKW4rkyeI3+BA4PvAn4CPtft62YPQHpnL2Btva+wdyHqDS4kwBlFSTMHHUj645Be08zkBnjMHaZJtW0Fvj3RrkQq4Axl16NuvVcMgxMZgT0cvR9zV3rTOO1v3VVUbmQpJ0jCwHLtr5/8JkMcGnHMM3b0SRshYnL4IuyOtjc3RuPtZhagKkyYB0N/CSgImqXRWPjd7poqOdwzXVJX3Pm7Dz6tRFSYpKmAExfG5l15fqp3bDiSV8HmcPX89T50BhL/c6xakgm27xWtIx9NmETJiORGpn4+A60Iuw/9JigBMsI5mZKHHxTg9esE9fTucygVguHb+T490P0EigUdhCt4G/K5MmqesI3LiUgFLPK53BS5AdtTUeQKnS9f3EEufXxpxhrEvIFuo6xyF2D68Kn9xBc9MPHEJwK2Ia7fX5gqjDdc2IP6BNh2QoaMfD6GO1nfVPY3mYHYY9Yr5b7dOU3w8L1WUswRO0tLso92vdi5gIGLRU12xWhE/QZ0euE267yLRNr3oj9u8uxVnvF+bDogdwE63CbEMHkRlL0tqLIFQXgB6Ij3TArJKR198EZZDiP6jefnijcE5YVOwzp9EwqkOA75qpbsP8zqCyzzyPktLZ1IRQf6XVAsASKV7zbuHJQADcVbsOrzXB0zELQR+j5twCzHI2/+BljboCCBzAlCKMFcGPazldUGJtCcjC0L8VnwLMr3qxUla+gWYBcUPqRGApBmC9Fam1I5kMxFXqcmUXnu/HFm/3xvpfHqhD4k7E47dP/EkpQUYruXTjLcKMNHXyuNcZAw/EjEW+X2LOyCx9NUyTKrg+SqpaQEgGQLQGbHtq/mcGyCfajlOK8N6nHvt+SU1ApAUFXAKTtfttTjNo23FU4jTiU1nZO1hZkmKAOgbG+yELIhUdfApSCfxeqS5D8oeyBDzMWQWzv4N6pDVxAPKlC1zlFMBnRAL2AJknK0TVh/gt1o+BSSW3X7Iog/1+hZgBvAl/Ov4wcBvcLuivYasCbjR8PyZBJsvSY0KgPICcI5y32ShC0sA6pC3u9Jx/YfAzzEvB6tDvIz0zp2fYybBRwGpEQA/KkDVze3wt8wqCAXgx1hbmlZAT8Syd57h3qmIUFUyaQQS8vV0tJBqWSQpfQCbUkKwBpmmnQ5sNNw/3ee1rcgCkHGYJ6NqpvJtyqmAOIJE1SGewQXE5DsDp/tWI6Ka1IAOW4GdtTzUCab1iACpw7odgauRyi4gtv8wjD+pUQFJcQjRKSBr+aYjlaP7/61COm19gPOta9shYVDtjREbcfrezUIsgirrEB+BqVZ6e91BzZBUAbB5v8z92RQFAErPHXgtNAVpKZb7LVSWSFofoFL0Fb2lCGLlzDxpF4A1uGMKmJhLvGv9E0vSVYAfxgB34+2vsAmJsFFTut0vWRCAViRYRE4A0q4CcqpEbwH2xel5C2JDryV6InMfBxDcIyjoqqU2RxeAXTFbz2qJS6mhvQXaEf42Kmkn7NVAW5EJq0TSHjGPXkeKmq02Zj7+bA074l4zAWLRbDJcTxT1SBQK0zGNtp8LiJOZOP8fP2HodqEYzFo9zi/1pSRg9wG24K0KIotVnxEaEFeyIdr1icjLk2jyYWB1NCDeSvrStEm4J54SSS4AwSlV+Ve2fXGCEcQSaAdVtvGjI7PGzoh5WW/2L0T8DlNDEAGYEXYhUkYDYnrWK38SKat88CcAlYZiyzI7I82+7uFzEebYhonHTx/ghchLkQ4yV/ngrwV4Gvg6subetFizI2aP3CyRycoPi6wbgnrh3oG0gIzzc8i+ALyBu/Iviq10IZPbAcqjT4dPRrafyQS5AFTGZMxb1KaWoA4PKl0RP32bFaTbAXN/zIEpxpOhNz9M9D5AFo+gkUJqgnpkrV7clRTVMT68nyq7nInE9Im7ssI8moGzw/yRksj/AJ7K80LksP2sAAAAAElFTkSuQmCC;" vertex="1" parent="1">
          <mxGeometry x="290" y="60" width="128" height="128" as="geometry" />
        </mxCell>
        <mxCell id="CZ1LiMqnYSPfAvN4lERl-16" value="" style="edgeStyle=orthogonalEdgeStyle;rounded=0;orthogonalLoop=1;jettySize=auto;html=1;" edge="1" parent="1" source="CZ1LiMqnYSPfAvN4lERl-8" target="CZ1LiMqnYSPfAvN4lERl-10">
          <mxGeometry relative="1" as="geometry" />
        </mxCell>
        <mxCell id="CZ1LiMqnYSPfAvN4lERl-8" value="" style="shape=image;imageAspect=0;aspect=fixed;verticalLabelPosition=bottom;verticalAlign=top;image=data:image/png,iVBORw0KGgoAAAANSUhEUgAAAIAAAACACAMAAAD04JH5AAAAA3NCSVQICAjb4U/gAAAACXBIWXMAAB6MAAAejAE1eHypAAAAGXRFWHRTb2Z0d2FyZQB3d3cuaW5rc2NhcGUub3Jnm+48GgAAAqlQTFRF////AAAAAAAAAAAAAAAAAAAAAAAAAAAAAAAAAAAAAAAAAAAAAAAAAAAAAAAAAAAAAAAAAAAAAAAAAAAAAAAAAAAAAAAAAAAAAAAAAAAAAAAAAAAAAAAAAAAAAAAAAAAAAAAAAAAAAAAAAAAAAAAAAAAAAAAAAAAAAAAAAAAAAAAAAAAAAAAAAAAAAAAAAAAAAAAAAAAAAAAAAAAAAAAAAAAAAAAAAAAAAAAAAAAAAAAAAAAAAAAAAAAAAAAAAAAAAAAAAAAAAAAAAAAAAAAAAAAAAAAAAAAAAAAAAAAAAAAAAAAAAAAAAAAAAAAAAAAAAAAAAAAAAAAAAAAAAAAAAAAAAAAAAAAAAAAAAAAAAAAAAAAAAAAAAAAAAAAAAAAAAAAAAAAAAAAAAAAAAAAAAAAAAAAAAAAAAAAAAAAAAAAAAAAAAAAAAAAAAAAAAAAAAAAAAAAAAAAAAAAAAAAAAAAAAAAAAAAAAAAAAAAAAAAAAAAAAAAAAAAAAAAAAAAAAAAAAAAAAAAAAAAAAAAAAAAAAAAAAAAAAAAAAAAAAAAAAAAAAAAAAAAAAAAAAAAAAAAAAAAAAAAAAAAAAAAAAAAAAAAAAAAAAAAAAAAAAAAAAAAAAAAAAAAAAAAAAAAAAAAAAAAAAAAAAAAAAAAAAAAAAAAAAAAAAAAAAAAAAAAAAAAAAAAAAAAAAAAAAAAAAAAAAAAAAAAAAAAAAAAAAAAAAAAAAAAAAAAAAAAAAAAAAAAAAAAAAAAAAAAAAAAAAAAAAAAAAAAAAAAAAAAAAAAAAAAAAAAAAAAAAAAAAAAAAAAAAAAAAAAAAAAAAAAAAAAAAAAAAAAAAAAAAAAAAAAAAAAAAAAAAAAAAAAAAAAAAAAAAAAAAAAAAAAAAAAAAAAAAAAAAAAA4IClfQAAAOJ0Uk5TAAECAwQFBgcICQoLDA0ODxAREhMUFRYXGBobHB0eHyAhIiMkJSYnKCkqKywtLi8wMjM0NTY3ODk6Ozw9Pj9AQUJDREVHSElKS01OUFJUVldZWltcXl9gYWJjZGZnaGlqa2xtbm9wcXR1dnd4eXp7fH1+f4CBgoOEhYaHiImLjI2PkJKTlZaXmJmam5ydnp+goaOlpqeoqausra6vsbKztba4ubu8vr/AwcPExcbHyMnKy83P0NLT1NXW19jZ2tvc3d7f4OHi4+Tl5ufo6err7O3u7/Dx8vP09fb3+Pn6+/z9/nZ/doUAAAYZSURBVHja7dv5W1RVGMDxdxBFMASX1BRNRVzKnDTNNDQoKcu0zCWXqMwlS9NMK00rcWuxVEzLJEwt3HID1NxaFEPBFTVQWef7l/TDnTubDTPcOYd5fJ55f5rz3nPu+cDce+bMuWdEfGPqnpuEGGdWJYjVaLYdFXGuh1XAItRESU9r/XepVgSgtJclwBiAnMyQYlEogoVAcRMJKVLN/4GVdyEb2Bta/zI8lOtgM7BbBcBhUaAMMK3cmkAZwD7UmkAdQJyClLABrAlUApyCCylhA1gRqAVYECgGmIIeYQM0WKAc0FCBeoBTcL5H2ACmIDlsgAYJtAAaItADaIBAE8ApKE4OGyBogTZAsAJlgG+X+kYeAMXdGwngNw7YQgJ0Hlxv++ap7QIBGG0dELPkEvzZ3n/r1KtwbmIAwBLLgB6/AzDPf+ttxnfjsot+oqgcWGcVEJ1v/AWZ/luvN2r472I3sNkqYA4A1T+08N+61x5DMEwLoBAon9++/jug92qAb3QAYmuAlYFvwgNAoQ5AX4BnAgNmA7d0AOwAwwMDZgKVEUCjAWL694kKJ2DoBSjoGj5A4kXuXtFpTMDzxrj3QNgAowxAUuMA0gF6e6XaXAPI9643FnDEawC8C5T5zEZGXINT3ijpXt+nUQiAViXAdt9sQvoTMb65y0CeTTWg4y6A9ySI+AngyziVgA4zN18HOB0fDKBPBUDR2gktVAHSa4yr/XZfCSrGOSd/N9orAmx2nvAtCTI2Ohu8owgwz3m+vKjg+m973tlghCJA69Xlxgk/DKp/2w6j9oUFNmV3QbQ9qw6oGxYMYDZAxaxkm9pxYDTAmmAABUBFL/Uj4ffAUd/koI0rfb9sxtUAszQMxeOAOp/HgTGXIc+nXipAsgZAf4Ah3rkMwNHKOzcNqLZpAPzfjGgUQAfvXKNOySKACCDsgKRaOBcVRoAsqSybII0E6ALg25u0ifXNZAGlOgByBdgfKwGi/XVgmxbANoCyrHqfgD25qQpgvhZAvyoAHP38t55qTEXOJ2oBOJfJ+NR/670A1GWIHoCMvwHwrP/WiwD+ThVdAOk0Y8Mvk+tZLG45d9fqyfWsI4YMCDkigAggAogAIoAIIDhA7Q1tURsUQHNEAIEBZ+ZoizOR2zACuFcBby9cOMVVaDl40viMPl7HE9ImDWjmUY5OTEx0lVsmJsaHCrgIB50vO6ytA+CkS9R08R8OoCr/JVf9DGCnWSiCI+oAj5Wb44m5GvvgIdcQ83WcB4CROgCtzgLXc7K3lhQ3Nw4NvA6U5a09WAkcT/AAnGqqAbAQ+K6FiDRxbpC0HQLWxYhIh8PAUg8AMzQAfoYj0Z5HXgY+M17G7YM7SR6AstbqASWwzPNA8yL411yOSAM2eABYoR5wyOdheZr73y4iBVAZZQIcUNNbOWApODw36r0GPO4qzQO6mIAN5pNWpYCBNVAx0X3gc8D9dHCcuc8mA8jcBGQoHwdecQAHnzMP5MJtd7WhwBsuQOc7cDxaNUDGlgHsG2CUTsIJd7UkYLkLIB8DbyoHSLtsB+BYLCIix+C0u1pXcw3NANxXAlcTlQNE7LmuXX1b4Y570WoYMNUNkFeB5RoAImNuAg+JyDKvi3A88JQHIKoAqlN0AGQg8LqITAEGubLvA508AJIK5GoByGHY6OxhhZmzHYVbNk+AbAFqFADKYL935kfIEZHok3DrfmfuBWCVeAG6VQLWAc7PU0kB1ntVa/YPzDU7XWc8M2lVCOXtvAGyLCTA1l8ndhSJS8s3r275YG43EZHYL6DW7jplboKI9PsLWCA+gJaXQgC8CFB6rBrgZhcRETkBZ7asySkFPjIqPVIK1BbkFAEcauELMFbwLQKmuaZfVKWLiEhshSuzwZwWtNthpuo+Md8zD0CToyG8BW2n/1YFcGd9f3Os++oKwO0Dae4mtum7bwIXctNdKQ+APE1Id0HzR0cM7+m1JyhpSFp3380ktuQ0rx0z8Xa7vY1ZeNhu7xnqbags7hFAoT5AYUBANkBWpqbIAsiuFzBL/xLNrHoBCWd19382wO/iU3bq7X9n4N8ejiys0tV7VeHIu7r7DwEtfxwx5LwmAAAAAElFTkSuQmCC;" vertex="1" parent="1">
          <mxGeometry x="520" y="64" width="120" height="120" as="geometry" />
        </mxCell>
        <mxCell id="CZ1LiMqnYSPfAvN4lERl-19" style="edgeStyle=orthogonalEdgeStyle;rounded=0;orthogonalLoop=1;jettySize=auto;html=1;entryX=-0.024;entryY=0.63;entryDx=0;entryDy=0;entryPerimeter=0;" edge="1" parent="1" source="CZ1LiMqnYSPfAvN4lERl-9" target="CZ1LiMqnYSPfAvN4lERl-12">
          <mxGeometry relative="1" as="geometry">
            <mxPoint x="1120" y="310" as="targetPoint" />
            <Array as="points">
              <mxPoint x="1120" y="454" />
              <mxPoint x="1120" y="311" />
            </Array>
          </mxGeometry>
        </mxCell>
        <mxCell id="CZ1LiMqnYSPfAvN4lERl-9" value="" style="shape=image;imageAspect=0;aspect=fixed;verticalLabelPosition=bottom;verticalAlign=top;image=data:image/png,iVBORw0KGgoAAAANSUhEUgAAAIAAAACACAYAAADDPmHLAAAABHNCSVQICAgIfAhkiAAAAAlwSFlzAAADsQAAA7EB9YPtSQAAABl0RVh0U29mdHdhcmUAd3d3Lmlua3NjYXBlLm9yZ5vuPBoAAAZSSURBVHic7Z1bqFVFGIC/k5aWUgcT7didXtRAvIRSdNndyIqyi0UGXageQiJ6yoIIejDyzfAtyUKkhxLNbiCSHvIhonsWZYko1rGw1NC8nDzZw5xDBzuuNTqX/197/g/mac2e+desb601a69/9u4gPVOBOcA1QBdwPjAqQ78p2Af0ADuAdcAHwLeiESnmNmATcLTNy0bg2khj1hZ0AeuRPzC5y0rgzAjj12im4y6P0gdDqvwATAwexYYyCdiL/EGQLruBWYFj2TjGAD8hP/hayj7guqARbRgrkB90beUv4KaQQc1BR4Q2pgGfAafU1DsIfIi7UvRG6DcnFwDzTuJzh4H7gVVxw9HFaurPhleAsVIBRqDFyV8J/gYeyB5xJkbjzuyqAXhaLLp4tAi7HfQB83MHnYO7qd7xt+VCi0qLOPOCBZnjTs6LVO/wNLnQotKiej+X485yHwkW5g09La9x/B39RTCu2LSoPqgt3GSvt6beQFlCnAl4MHUz9zq6KrZtD2y7abwBzMXN/Ot4AlgGDEsakQehAoyo2OYzEO3GO8Bs3BdBdTyMezwcmTKgOkIFMP5PN3A98IdH3dtxEpyeMqAqTIA0fIrLf9jpUfdmYC1CbxJNgHR8h8sT+Nmj7lW4V+jZvywzAdKyGbgS2OJRdwbwEXBu0oiOwQRIz3bcGb7Jo+4kXIbRJUkjGoQJkIdfcXOCTzzqXoyT4NKkEfVjAuRjD3AD7l5fx0Ba3dSkEWEC5GY/Lll2rUfdccAG4PKUAZkA+TmAe/5f6VG3E5d+fmOqYEwAGXqB+3DvUuoYBbwL3JkiEBNAjj7gUeBlj7ojgDeBB2MHYQLIchR4CljkUXc47gXSQzEDMAF08Ex/qWMYsJSIcwITwI+jNdtjvNtfBDzp0depwFtEWoBiAvixu2b7XOC0CP0sAR7BzQ+qOAtYHKG/YDZw/KyXDYJxxaYT/5SvnCV43YFdAfzYC3wsHcQQBGdcmwD+LJUOYAiuBs4OacAE8GcF8IV0EMcwHLg1pAETwJ8+3DqIXdKBHMPkkA+bACfGNuAK4HvhOAYTlEBiApw4W4DLgOeA34VjATgn5MPDY0VRGAdwK3xewl0RJuLOxFQp3vNwK5SHIugYmgBh9OGydzYm7mcWxxcgCLsFFI4JUDgmQOGYAIVjAhSOCVA4JkDhmACFYwIUjglQOCZA4WgRYDpubfwh5PPsUpYe4AVcZq8KNLwMmo7Lt4uRVaudLuB53O8A3CscC6DjCrCYMg7+YO5Byd/MaBBgpnQAQqjYbw0C1C26aFdU7LcGATSmW6dmF+5n9sXRIMBC3Fq3UtiF+11hDfmEKp4CenEz4hYuv65d/3rtCO4Xw1aj5OCDDgEG6O4vRkY03AIMQUyAwjEBCscEKBwToHBMgMIxAQrHBCgcE6BwTIDCMQEKR4sAlhMohIaXQZYTKIiGK4DlBAqiQQAVuXECqNhvDQKoyI0TQMV+axDAcgIF0SCA5QQKouEpwHICBdEgwADdWE5gdjTcAgxBTIDCMQEKxwQoHBOgcEyAwjEBCscEKBwToHBMgMIxAQpHiwApcgL34F41d2bcj8ah4WVQqpzATuAxXObNTOBw5PbbAg1XgNQ5gVOAxxO232g0CJAjN05F/p1GNAiQIzdORf6dRjQIkDon8AiwLHEfjUWDAClzAg8B84EvE7XfeDQ8BaTICRxYhvU+sDVCe22LBgEG6MZyArOj4RZgCGICFI4JUDgmQOGYAIVjAhSOCVA4JkDhmACFYwIUjglQOCZA4ZgAhWMCFI4JUDihAlSlWo8IbNv4j5EV24LS3UMF2Fmx7cLAtg1HB3BRxfaekMZTCjABt+jDCGMGcE7F9iABQrmL6uVZa+RCaxveo3qM75ALDUYBB4cIanBZIBZd83mW6rE9AJwhFl0/q6hfqPkqME4qwAYyDreWoW5cV4Z21BHaADAV+Jz6+cQhYD2wGfgtQr/tyHhgIu6/BKpm/gD/ANOAb1IH5cNy5P+OpbTyus+BycUY4EfkB6WUshUY63VkMjIZ+BP5wWn3shd3m1DJFGAb8oPUrmUH7nsB1YwH1iE/WO1W1tKwJ6lbgK+RH7iml6+A2Sc49t7EeAysYwowB7f6dwJwHjA6Q79NZD/uMt+DWyi7BtiUssN/ARGinIGMwtnTAAAAAElFTkSuQmCC;" vertex="1" parent="1">
          <mxGeometry x="860" y="394" width="120" height="120" as="geometry" />
        </mxCell>
        <mxCell id="CZ1LiMqnYSPfAvN4lERl-17" value="" style="edgeStyle=orthogonalEdgeStyle;rounded=0;orthogonalLoop=1;jettySize=auto;html=1;" edge="1" parent="1" source="CZ1LiMqnYSPfAvN4lERl-10" target="CZ1LiMqnYSPfAvN4lERl-11">
          <mxGeometry relative="1" as="geometry" />
        </mxCell>
        <mxCell id="CZ1LiMqnYSPfAvN4lERl-10" value="" style="shape=image;imageAspect=0;aspect=fixed;verticalLabelPosition=bottom;verticalAlign=top;image=data:image/png,iVBORw0KGgoAAAANSUhEUgAAAIAAAACACAYAAADDPmHLAAAACXBIWXMAAA7DAAAOwwHHb6hkAAAAGXRFWHRTb2Z0d2FyZQB3d3cuaW5rc2NhcGUub3Jnm+48GgAABUhJREFUeJztnT2vFVUUhp9rCLfSPwC3UQsTCqSysLJSYyyMUQsM0cJK5X8ZjZXBGI3aSLBRaztAsCAaQILxgsFizvWeM+w583Fmr49Z60l2Qrjn7Hnn3e/s2XczswAZ9oGLwBXgHvBIqd1bafgIOFn1jJP/OQX8gt6gd7WfV9qSiuxjc/CP2k/kTFCVi+gPcl/7sNrZJ/zIptlfoDvtngYutTRdVtSzeP5i0+zTunIAOGBT0x1dObrsVe7/kfDxhmJVlzhPaAtIdMkABCcDEJwMQHAyAME5IXy89uo7USZngOBkAIKTAQiO9BrAyo5brkVW5AwQnAxAcDIAwdEOwJvATeo97HEDeEPsbJLHaA9Im98Ln6kRgrG6wqA9AyQLp+9K07oF5AywIp8IarCiS5y8BQQnAxCcDEBwtAPwGvAbuQ+wWPpW29cLn8l9AEG0Z4B/lI+fGOQp4AzwLs2rZIfkPkA1ov7+m/sAK7RvAYkyGYDgrAcgy7jUwYWvnsq4PAM8HPh97UWgC189lnH5fMT3tfYB3PjqsYzLhRHf1QqAG189lnF5jmEnqHkLcONrxDIuEgFw4esejxtgZVOkpi6Jc3bha+4DBCcDEJwlBuAA+Ay4S/fiMFnDqjlTdB0AfxS+u63dn1X1MW58dSN0AJ8WvtfXvp1V9TEufC39FmCVIavou8CTI/p8ALwE/DBJ0XZc+Lq0NUB78PdW7W2afz9Y51/gfeoMvivm3l6s1aacC8BbNFf6+t8/BM4P7HMq2n4N9lVbQM0AaA1+SYvVNsloCeYIQHvwHwDvzK50mBYrhAqAxpXfpcUKIQMgPfglLVZYTACG3uM0Br+kzwqjA2D1HX7Lg1/S18aMr31CrZZx6evzELkFXwkXvi5tIwjgb+A7mh2+T2bs9xzwDc3W8fMz9quOm6lKmV851nIbeKHn8258tWb0EdZ0/cmmnr4QWNN/RAagwNSr8TbdtwM3vroRWpFdFmRfdvTpwtclLgKlsTS4k3CzWKnILreAsx19uvG1T6iJ31cLP5dm7kWgCV/zFjCcW2t/vgO8TPP2j3vcTFXKnAW+Ar5m2EaQC1+jvhkkgVX9G7ryFhCcDEBwPAdgyn1xaeVnZkF7sXIdeHWCrl2PWyo/MyfavrraB7g2RGjPz6e0UvmZubDga+4D9HAO+EBbhDbaU9U14JUJuqYwpPzMXGj7ms8DdFC7/MwRLnyNuhEkcc4ufI2+BghPBiA4WgHIMi51mOSrtPEWyrhInLMbX6WFWijjssQATPZVWui26anUDoEXW328N7KPvlYDN75KC+063phiDt8X+okegMm+WhA6ZvBfL/SRAdjBV22hYwb/WZpn8zIA/ccb7Ku2UI0yLhECMNhX6bLm265EqRo+EoPjxtcrrQ9fqixWe/BLGmrgxtePt3xZqkkOPoXj18CNr/s0j0dZE/k0cHXHvjXfObDqa5FTSmK7yrjMMfjrIWgjEQCw5+tWTtL8L1KXGb+rNLbdp9mGbO/wwbyDrx0AsOOrC2oMvofXztSw8pSKNO1Bj+pDPhASnQxAcE5U7j+nWuNozwBaz8YnQvSttk28HrXzWTpGewZIFk7flWbm9aio1F6UWV0EWtUlTt4CgpMBCE4GIDjaAch9gIWT+wDG0Z4BkoWT+wDGyX2ABiu6xMlbQHAyAMHJAARniQHI8jOGkDbeQvmZZA3pAFgoP5OsIR2AOcrPJDMiHYCu440pQpHMiIUA5OAroh2AHHxltAOgUX4mWcNNmZSkDm7KpCR1cFMmJamDqzIpSR1clUlJ6pBlUozyH0qxEh/4g7WKAAAAAElFTkSuQmCC;" vertex="1" parent="1">
          <mxGeometry x="740" y="60" width="128" height="128" as="geometry" />
        </mxCell>
        <mxCell id="CZ1LiMqnYSPfAvN4lERl-18" style="edgeStyle=orthogonalEdgeStyle;rounded=0;orthogonalLoop=1;jettySize=auto;html=1;exitX=1;exitY=0.5;exitDx=0;exitDy=0;entryX=-0.01;entryY=0.388;entryDx=0;entryDy=0;entryPerimeter=0;" edge="1" parent="1" source="CZ1LiMqnYSPfAvN4lERl-11" target="CZ1LiMqnYSPfAvN4lERl-12">
          <mxGeometry relative="1" as="geometry">
            <mxPoint x="1120.0000000000005" y="280" as="targetPoint" />
            <Array as="points">
              <mxPoint x="1120" y="124" />
              <mxPoint x="1120" y="280" />
            </Array>
          </mxGeometry>
        </mxCell>
        <mxCell id="CZ1LiMqnYSPfAvN4lERl-11" value="" style="shape=image;imageAspect=0;aspect=fixed;verticalLabelPosition=bottom;verticalAlign=top;image=data:image/png,iVBORw0KGgoAAAANSUhEUgAAAIAAAACACAYAAADDPmHLAAAABHNCSVQICAgIfAhkiAAAAAlwSFlzAAADsQAAA7EB9YPtSQAAABl0RVh0U29mdHdhcmUAd3d3Lmlua3NjYXBlLm9yZ5vuPBoAAAZSSURBVHic7Z1bqFVFGIC/k5aWUgcT7didXtRAvIRSdNndyIqyi0UGXageQiJ6yoIIejDyzfAtyUKkhxLNbiCSHvIhonsWZYko1rGw1NC8nDzZw5xDBzuuNTqX/197/g/mac2e+desb601a69/9u4gPVOBOcA1QBdwPjAqQ78p2Af0ADuAdcAHwLeiESnmNmATcLTNy0bg2khj1hZ0AeuRPzC5y0rgzAjj12im4y6P0gdDqvwATAwexYYyCdiL/EGQLruBWYFj2TjGAD8hP/hayj7guqARbRgrkB90beUv4KaQQc1BR4Q2pgGfAafU1DsIfIi7UvRG6DcnFwDzTuJzh4H7gVVxw9HFaurPhleAsVIBRqDFyV8J/gYeyB5xJkbjzuyqAXhaLLp4tAi7HfQB83MHnYO7qd7xt+VCi0qLOPOCBZnjTs6LVO/wNLnQotKiej+X485yHwkW5g09La9x/B39RTCu2LSoPqgt3GSvt6beQFlCnAl4MHUz9zq6KrZtD2y7abwBzMXN/Ot4AlgGDEsakQehAoyo2OYzEO3GO8Bs3BdBdTyMezwcmTKgOkIFMP5PN3A98IdH3dtxEpyeMqAqTIA0fIrLf9jpUfdmYC1CbxJNgHR8h8sT+Nmj7lW4V+jZvywzAdKyGbgS2OJRdwbwEXBu0oiOwQRIz3bcGb7Jo+4kXIbRJUkjGoQJkIdfcXOCTzzqXoyT4NKkEfVjAuRjD3AD7l5fx0Ba3dSkEWEC5GY/Lll2rUfdccAG4PKUAZkA+TmAe/5f6VG3E5d+fmOqYEwAGXqB+3DvUuoYBbwL3JkiEBNAjj7gUeBlj7ojgDeBB2MHYQLIchR4CljkUXc47gXSQzEDMAF08Ex/qWMYsJSIcwITwI+jNdtjvNtfBDzp0depwFtEWoBiAvixu2b7XOC0CP0sAR7BzQ+qOAtYHKG/YDZw/KyXDYJxxaYT/5SvnCV43YFdAfzYC3wsHcQQBGdcmwD+LJUOYAiuBs4OacAE8GcF8IV0EMcwHLg1pAETwJ8+3DqIXdKBHMPkkA+bACfGNuAK4HvhOAYTlEBiApw4W4DLgOeA34VjATgn5MPDY0VRGAdwK3xewl0RJuLOxFQp3vNwK5SHIugYmgBh9OGydzYm7mcWxxcgCLsFFI4JUDgmQOGYAIVjAhSOCVA4JkDhmACFYwIUjglQOCZA4WgRYDpubfwh5PPsUpYe4AVcZq8KNLwMmo7Lt4uRVaudLuB53O8A3CscC6DjCrCYMg7+YO5Byd/MaBBgpnQAQqjYbw0C1C26aFdU7LcGATSmW6dmF+5n9sXRIMBC3Fq3UtiF+11hDfmEKp4CenEz4hYuv65d/3rtCO4Xw1aj5OCDDgEG6O4vRkY03AIMQUyAwjEBCscEKBwToHBMgMIxAQrHBCgcE6BwTIDCMQEKR4sAlhMohIaXQZYTKIiGK4DlBAqiQQAVuXECqNhvDQKoyI0TQMV+axDAcgIF0SCA5QQKouEpwHICBdEgwADdWE5gdjTcAgxBTIDCMQEKxwQoHBOgcEyAwjEBCscEKBwToHBMgMIxAQpHiwApcgL34F41d2bcj8ah4WVQqpzATuAxXObNTOBw5PbbAg1XgNQ5gVOAxxO232g0CJAjN05F/p1GNAiQIzdORf6dRjQIkDon8AiwLHEfjUWDAClzAg8B84EvE7XfeDQ8BaTICRxYhvU+sDVCe22LBgEG6MZyArOj4RZgCGICFI4JUDgmQOGYAIVjAhSOCVA4JkDhmACFYwIUjglQOCZA4ZgAhWMCFI4JUDihAlSlWo8IbNv4j5EV24LS3UMF2Fmx7cLAtg1HB3BRxfaekMZTCjABt+jDCGMGcE7F9iABQrmL6uVZa+RCaxveo3qM75ALDUYBB4cIanBZIBZd83mW6rE9AJwhFl0/q6hfqPkqME4qwAYyDreWoW5cV4Z21BHaADAV+Jz6+cQhYD2wGfgtQr/tyHhgIu6/BKpm/gD/ANOAb1IH5cNy5P+OpbTyus+BycUY4EfkB6WUshUY63VkMjIZ+BP5wWn3shd3m1DJFGAb8oPUrmUH7nsB1YwH1iE/WO1W1tKwJ6lbgK+RH7iml6+A2Sc49t7EeAysYwowB7f6dwJwHjA6Q79NZD/uMt+DWyi7BtiUssN/ARGinIGMwtnTAAAAAElFTkSuQmCC;" vertex="1" parent="1">
          <mxGeometry x="950" y="64" width="120" height="120" as="geometry" />
        </mxCell>
        <mxCell id="CZ1LiMqnYSPfAvN4lERl-21" value="" style="edgeStyle=orthogonalEdgeStyle;rounded=0;orthogonalLoop=1;jettySize=auto;html=1;" edge="1" parent="1" source="CZ1LiMqnYSPfAvN4lERl-12" target="CZ1LiMqnYSPfAvN4lERl-13">
          <mxGeometry relative="1" as="geometry" />
        </mxCell>
        <mxCell id="CZ1LiMqnYSPfAvN4lERl-12" value="" style="shape=image;imageAspect=0;aspect=fixed;verticalLabelPosition=bottom;verticalAlign=top;image=data:image/png,iVBORw0KGgoAAAANSUhEUgAAAIAAAACACAYAAADDPmHLAAAACXBIWXMAAAOwAAADsAEnxA+tAAAAGXRFWHRTb2Z0d2FyZQB3d3cuaW5rc2NhcGUub3Jnm+48GgAAEfFJREFUeJztnXu0XUV9xz/3XhJyQ0JuoMqrGIOAgCYgMRTwQZCEh6AosOShMSDgA1y0RKxSQdDSWgVdgtq6ZGmitVprFtjSUgEVo4AQ5CEBAiFAlCAaCHlBcklyz+0fv7N7fjNn77Nn7z0z5+Te811r1jn7zOu35/z27Jnfa6CLLroYvehJ+W0isENsQrqIgm3AxlYFFgLD3TSi0wIU9AwwAKyli9GAAWA9QK/6ccf20NJFGzAu+dLqXf8+4KnwtLQFOwJ3quvzgQfaREsM7An8V1pGKwZ4FHgkCDntR791vRy4rx2ERMKLWRm9WRkjGH3ATOu3g2lmilGH3TBXi29oLzneMRG4HHie9NXxJuCfgb3aRWBATMW8192SjFj7/T7gKODt9c43Ie/cm2kxPXnEwcAiYN8WZfqBjwFnAvPIeGd6xjhgDnAEsCuwBrgXuAUZo6gINQMcBzxG+lO3EfgswiCh8EZgXUrfy4HFyDpnyMobAk4JSBPAB4BnU+gaBlYDH/HYV+YMoOUAuwF/UtdvpPoi8ELgOvLXGo8Az1XsKwvTgVer64XAVcCT6rfdgfnAxTRmxc2YOwWf2Al56vNwPcIIwxX7m4q5o9sd+LNdyPcMMIfmJ+u3wHeAm5ApLrYU7KM5NJ8AbIlM0zZkJvrX+qc9Zpfk0OyCzBlAwycD9CJPddLWOmRwbaLuIsygpqVvOtL+yYg0PQFMs/qfXv89KbMRcwYrg+ivgLcAd6jrU4AbU8r9BfCwIugh4Acl+7QxHTir/n0I2JvGa6YXWfDNQRajX0KmfBAh0ao6bQA/B27zRNPsegIYRP78FSnl9gOW0pDOXgR8rUK/0V8Bl6p2nixQ1qfg6a9Vu0usvIsx7/V6K/8HKu9bHmm6QbX7w5yyP1Rlf1yx38wZIJQgSE9Zy3PKLlPf9/ZIg25rlZV3knV9snWty/+lN4pEJJvgsZyyOn93jzQYCMUAem+/Z2ap5vz1HmlYo74PWHnLcq51+TX4g9a27pFTVjOwTxoMhBIELVXfpwFvIl3Z0gPMVdcrgRmeaNCyhZmI0GWwfn0FMi3OBn4HfNiq+zb1fatHmlar76cAnwBeTim3M/Bedb00pYx3+FwD7IhwbdLWcpqn917gi1afIdPHHWk/ISJNN9Ksg9gJ+B9VpgYc5Eh7FqJvA0FW2bq9DcDViARsPiLyjDXQSf/Tc2jeE3gmMl1PAp+pj8tngd9b+d/OodkFbWGAHkS4EXMw89JaxM4hzRbyaJoHv91pCTDJZbBz0DZR8Hhkvzkhp9zfAN+r2FcWTkAYUS94lwG3InKBXZA/31YRf7GeQmAaIvXLwwzgfg/9tUUUDDLV6zaXIkz2OOYa4VHCKoTOQRaArk/eNaTPEr7wfdXXICIMW13/3Kzy/s1Tf215BUwCXlDt/czKP83q77yK/eVhBvLUtfrjl9EsE/CNQzDl/f9k5X9B5Q0hO6iqaAsD/INqqwa82crvAe5RZVYRxypnJvA5zHtdCBxL2FkowU9Vv2tollEMYM6Ot3joMzoD7Insb5O2ssSeb7f6/HSFPouipvq1mTMUZmHeb5am7xKr3OyMcq6IzgDfUu1sobUlzs2q7FrEMiYGYjNAD3C36rPVjDcW2R4mZR+kmtQ2KgO8HpGeJe1cl1N+GuY78eqS/RZFbAY4A3N85+WUn2eVP6NC31EZQGu8NmZ1ZuG7qs5m4DUl+y6CmAwwBlPH/xD5641eRHye1HkKmRnKIBoDHIY5sFc41puCuU1bUKLvoojJAB/HHNsTHeudaNVzFWfbiMYAv1D1VyOm2K74sqo7hFjyhkQsBpiACJySvn5VsP7PKT+mCaIwwElW/QsL1p+MqJGT+qHNsmMxwBWY43JkwfplZ1WN4Azg6331dxYNR5dowxUxGOBViI1D0s+iku0sUm24rqs0gjPA2Vbd0wsSmKAfUxt3D+FEsjEY4DrVxzbgwJLt7I9prZy3s7IRlAHGYWrRHqDanvXDFh3vbV28NEIzwFTMha2rVXIWvqnaypOtpNESjAF8S636ME3KHyOM5VJoBtCGpZuoblu4B/CSarOI9XQwBhjAVPj8tABRrXCKRcv5ntrVCMkAB2MKt67y1O5Vqs0a7qZqwRhAa65qwKGOBLngTtX2s4htgU+EZIBbVdsvIjscH5iI6PGTtm93rBeEAWyFz/cdiXHF2yx6LvXcfigGmIVJ98Ue24Zmn4Y5DnWCMMD1quwrwOscCCmKm1Qf6/CrKArBAD2I/2PS7kr8x14qoyjyzgC2wuerzuQXw4FWP9d4bDsEA5yJOYZzWxcvjblWP2fmlPduE3gD5vbsJeSPCoFJNDh8EGG+P3hot0bj/mciT24VjEFM2/T2LIlL4Bs9mIYkT9J4WNLg1SZwHM0uzDHTRRl0FYXvGeBI2jcmw4hDbha8+gbWStbzhW1t7LuTUWpcyghYtiBOFjvXr7+AaAFDoQ9RDCW6hRcC9lUFNl3n0OyU6hOvw5QulhqXshK2x2nY0Y+l2eLXJ6ZjKpbyvGrbhaeRd/CY+vUgYcdFG80MIjuOwig7ld+tvs8q2YYrtEZwPbLQ6kRsxVxIzgrcnx6XJci6rDDKMoAW+c4gnDatB9Nz9zY6ew2gx+UsGq9J39gVOFVd/6+PRovIAXbAtHLJi3ZRFu+0aPLptBFCDrAP5g7pE57atXG56mMbYlLXCkEkgRdZ5e0gUFWxExI/p4jEqwhCiYK1getL+JeQ7o8ZYc3FezgIA4zF/IOeIT8aiCt6EMNQTc+xntpOEIoBXoPp37cYFZ69IsZjelO5qpmDaQPfhTmQj9CIrlUF11i0pEUYq4qQ2sArMen/Txq7g7IYi+lWNgxc5lg3qEHIlVa9lcDhjnVtTKQ5psAy/PjI2wjJAL3ATzDvYzHlA1HvDfya5ofC9ZUYlAF6gH+36g4ixgu7OLbRiwRu0K+UYcQMOoSWEcJbBE1E1i36fp4HLsBdQ9iPhLvT1tLDSMyAvJgLGsGNQvsw7fqTtAGRVp1MsxfsWESYdDmyt7frLkVW1aEQwyh0Ema8nyStQoJPHE2zf+B44BjERe65lLo3UXx7Gc0x5GzkT7eJTtLLiMQsK2Z/kv6Dcg4QRRDLL6APiQGg1dp2Wodo9FqN3VbE5b7MTiiqb+CuyA0XiciRpCWEl6AliO0c+nqEsXW/ruk2RD1fFm0JEDEFiXp1P63Vx88he+c5hA3LYqMd8QFAIn5ci+ksmpaWI4Y2h3jos21BohJMAg5AVrOTkP3ri8hNPu2pj6LwbRBSBrshhhyvQgxH1yKvx0cxg0pWRaZBSKwjY9YjAox7IvW3veDPpFjmxMRoPDWsC4UuA4xylH0F7ITs7Y9BXJY2IeuFG5DgyyMVfcDx9fRaZB2xAtnr344ssLZbuO4CTgf+SPrKtYa4MscK9FQFRXcBhyOBHLNW7XdTPahzKHjbBn4St33sCvLj4bcbRRjgnZgavqy0nvJ6kJDwwgDHYQ5aDfGBuxoJC2efgXcncff1ReHKAFNpltDdB3wF8dO3xdhJ/OFOQmUG6EFk80neC8Bbrfr9yJFwuo33+bqDAHBlgO+pcluBD1r5vYjlj24vVJDpsqh8dOybMEWR52CeCgYyRZ6PMM5h9d8+iIg/bQwQfnYYRmTsVTAe0/bu72mOal5DFGH707Bf/AAS9dReFE6gul2ACzZQwki01Qxwgfp9ZU4781TZ5628fsxomaHTfciOJQ0uM8DhqkyN1sYu06y+p1j5CyPe9x+Ro+cSVPYM0qv6pzJLNefvavUxA/grxz594FDcjmjNgr7vDbR2vrCPx9PMMp78yKA+sQeOoXVcGUCfApZ3tJt2WHgReXIS/I64jh0rqCbj1/c9kWabBg07uqk+6WsTosePhfU4moq7rgH0wYv7IoYMt6eU68EM52If2LgR8fQ5kPDvwq0Is22p0MZSRK09DnlYzkXe92nQ/gt/otmD+T3ItFzEkqcMEuHUxqIV83YBy1TeKpr102lWQWfRuXDdBegTPDcjMgEbZ2OqvLOYpF3wIgc4CXPQXkEiVV2C2P8ts+ovobN1Da4MsB9mdK4aYp37acQq9w7M+16NH8ton/AmCbzSKpOVniFOxO8qKCIJPBW3Y+VfBo4KRG8VeLUIOgczNJydbibgWbceUVQXMIvWVjwP4sd6JwQqC4I0FiBav9OBdyCeKRuQV8Ai4DcVie1U/BJR9rwHcYNL/ABXAP+NaARrWZW3B4Q4Nq6T0S6bwHYg+vHxXWwn6DLAKEdVo9B9EH+3jYgotLDwYTvF7si0WkPuu1PjFhWC6xqgH/gUYs6ty7+CiDu3l/dp0TVAL6Ll0wdjDCMLwbuAd4ch0wu8bQOnICdetdoLDwF/65X8MCjCABMww9ZmpYWUP9krJLwwwGQkOpiLIGiY8idcxYIrA/SR7uCZlRaEI7k0vDDA1638GxFDkV5ES3YepoBoM/mxa9oJVwb4EOZ934tYQ49BlETvRpROukyavqCdqMwAk5F3vObyNIueNyALwaRcpylFNFwZQP+595B+3OtkxM0tKfdLn4R6QGVJ4Bwa77ZBYH69IRuPAN9AFokgT4IdKetU4jiCDiMq6x9VaGNfxKs3wXxkZrOxFvgMDfO3tyI+/BtUmSOQRWQMd7zHEQfUQmZhrWaAT6nf78ppZ7YqO4j5Rx9A3EDTNbIPoHSZAeaoMptozbS7WH1PU3ljECaJdd/DiM4mgVdJYNqT74oe4puKx+qvyri0Da7T0dPq+6E0XJnTcIxVTw/MMkSJdDLht0tbESXNgxXa0Pfdj0zjWTOgvu8h5Cg9TcuJyEI5hkXQb2m2Xs5F3iJQ68O/TfqTdRDmItDnCR++4boI1Fvfu0mP+TeAuQi83Sul1eFlG/gNK/8G5P3agyx4zsWM/RPrGPiycGWAczHvewmiBt8BifZ1Es3WUL6jplaFN0HQcqvMMBKrNm0RMpIEQTfTfH9DpPtJLghHcml4EwVPxXQRS0tDNLaBnYwiouCJyHoib+X9XfyfEuYDXk3C+hGDyJVW+S3IIM3MqNdpKKMMmov4Nuj7riFrA5+RzH0jWJSw/RAjyDcTLjZ+KFSxCNoLEfYcCbzaM10h4NUmUOOJehpteLaetnt0LYJGOboMMMpR9hUwGZHoHYMcEvESDbNwO27ASMJYRJl1PA2TsCcQe4GbKHlwU6fAdRF4Hs3hy3W6FX8nh4RE0UXgOxDX96z7fhhxf+9EeNsFfJ7sAdBpFRJGrZNRhAFOo3W07yRtwjzOrVPghQFOtvK3IAdFXIqcHmpbxdyPSNE6Fa4MYB/SlMxylwFXIMGwdN4aMga4jfASJEorRVZh6rsh3T3cDqjUSXBlgB+pcpsR2b+NszHtHK71SagHVJYDHIY8CQnmIiJhjSHEVfxQGjH/30+zWnIM4k8YQ0//DNWOtZ+Iae59GSLttLEQeSDm16/PqH/Xi8Je5L5jWAStRhbmhdBqBrhQ/b4ip533Y06HGhNIPx4mVFpO9oFTLjPAEarMEK1DxBxg9T3VyrcPkQqZ1mLO0JUtgnTgQzv0iQ2dP2D1cQgSHiYW9qOabkLf90Zah52zx0XXHU9cXcEAjippVwbQrk95Bznp/DWYLtP3IWbVsfAA1dzV9Qy2M60jf9jjokPkbaKEhU4FPIfMOLlwfR/p08KnIAuhtHdhH/CxjHogi6jDiBMoErLN1lzxEPLnjUfovQDZCqdB2z+sQtYfGvPqZWKsAbwHiuzBdAl7HniLVX8cYiqm2ziVzoXrLmChKrcVWQBr9CALPt3eP3qmtSq8yAFmY251hoBbkBPC/gXhel1/MSMjWPQUJO6evrd7EXvHr9IcQv5ZWi8W2wFvkkA7KHJWeoLOjxNURBJ4PG7h4tfRiJPcSfBqEHIazU97kmqIdLDTwqWnoaguYCbN1kA63YHpRdRJ8GoQsggxknwXog3cCxE6JEfGPFyR2E7FvYgz7LHIjLAPwkTLEW3g4vaR5gfdIFEjF90gUV2ko8sAoxxdBhjl6DLAKEerXcBBpDtCjkQkmryRikwTvVanh3cxcvH/p4frV8Ar7aGlizZgMPmiGWAdovjoYmTjO4huA0hX1sQ6266L+NhKCVOxLrroYqTi/wD2wdN/1k7cpgAAAABJRU5ErkJggg==;" vertex="1" parent="1">
          <mxGeometry x="1147" y="230" width="128" height="128" as="geometry" />
        </mxCell>
        <mxCell id="CZ1LiMqnYSPfAvN4lERl-13" value="" style="shape=image;imageAspect=0;aspect=fixed;verticalLabelPosition=bottom;verticalAlign=top;image=data:image/png,iVBORw0KGgoAAAANSUhEUgAAAIAAAACACAYAAADDPmHLAAAABHNCSVQICAgIfAhkiAAAAAlwSFlzAAADsQAAA7EB9YPtSQAAABl0RVh0U29mdHdhcmUAd3d3Lmlua3NjYXBlLm9yZ5vuPBoAABCzSURBVHic7Z152BZVFcB/3weioIDgCsoigUqkFvXo45JLamGYBggqZqVWLllmmpqaSWppmVla5pJippYLrpBKmEuKu4lLhApoigrIjih8S38c5nHec+/M3Jm58y5883ue+zzfvN+8595575m7nHvuuU3E0wR8FhgF7AlsBfQBNkj4Xkl6VgHzgLeAB4G7gBdqWaD9gOeA9jLVLD0J7J1QT97ZCLg9R6HL5D9dS5Va3X7AjCo/XJnc0nRg8+iqy0ZT6O+NgMeAHS33LQDuWVuId4EPfRekhK5AX2APYCTQy3LP48AXgI+KKICt2V8B/Ihy0FdtNgLORSpa18lVRWT4JUtGbwOfKSKzEmf2ABZSWS9twM4+M2kCnsd888vKrw/2AlZTWT8P+sxgZ8y3/1SfGZTk5iLMOhriS/j5SvB8yj6/3tgYWEllPf3Qh+DOSBMT5h6SR/nbIhrYLUOeCxEL16IM3+2oLAGmAgeHPtsLuMSH8NlUata3Y+49CHgJszlKm9YAtwGDfDxAB+F0Kn/DZ3wJXqUEHxhx3wTyV7xOi4DdfT3IOs6RVP5283wJ1pWyn+Wewy33+UrzgS18Pcw6zFjMlyc3zQ73dAZ+afm8BVi8NrWr/60M/S+cllrkbAb82LG8JQWQ1ALsbbnnUsR0GbBI/X9sTH7bYK4yvkOlWbrEpGYtwFB1PR84BRk7ZGEOYl4OsyXQO6O8khy4KEB3df0/oDVnvnMsn/XMKbMkAy4KUDbN6zCdC5J7ITJvjWL9gvItSUlRClAaeBoEly6gZB2mVIAOTlFdwI3AizH/7w2cVlDeJSkoSgHuAm6N+f8gSgWoC1y6gDZ17UNpbDJ0PiVVwEUBFqjrbcm/eKN9EEAsjCVVxuVtflxdd0WcEy4C3lv72Xrqnh2QxR9NMzAcOEt9/jzwgUNZSgrAZTl4muU+nynOCaVEqNliEMB3gWU+MrTwT+C6gmSXJOCqADOBEciuIJ/cD4xGfAtKakAaQ9B0YHvgHPL12QuA+4BxwAGIw2NJDXEZA5TUnpqOAUrWUUoF6OCUCtDBSWPW7Qscj2wadXXoaAVeRyJcPBtzXxMwBvgq6ayMS4F/INPIuD3zA5Gyfwro4ii7BZgFXI1shomiE+I2PxLY1FE2iKHs78BfkI0yNcNlELgbpudvmtQKfC8i/87kD0nzPLBJhPwvIruds8peA3wjQvYGwAM5y/4vJB5AEoUMArEUSCtAVyRyVV5rXytiBtboLU9Z080W2b3Ip7hB+gj7btxfeCr7HyyyNTVTgFGWe7Kmyy35/9eT7DXILtowx3gs+3mWss/3JHsFyV1TIQrgMgbQ/n3vAtc7yt8b2CV0/QnLPfqzvwFzHWRvAJwUuu4MDKDSsKTLPnetfBdGADuFrger/3dHdjWFuR43a+nGwLGh6w2RvRFvOpbNGy4KoO95GzjDUf6FVCqALb9O6voaZGCXRC8qFcAmX8t+Dfey96JSAbQs27NcRvxgN2AQlQoQJa9wymlgB6dUgA6OS7PTrq67IfGDXdgyXXEAGW3bnEk0PSyf6bLavuNadt2/u+Sl91FGsZWjvMJxUYCF6noo2aNT2Ny+FlD5Y7tMiaLQ7mu67Dvjr+zLkelh2Ch2Q0bZbcD7Gb+bC5cu4AEkTJkP7rF8dq8n2f9GNq6GmYw/Z1Nd9lbEkueDhynO4SaRJDsA+DHWTMGucH2RmUUe2auAXSOezxZiLW2yGZlApoY6kGPatBTxoUyiZoaggCOAVyz3J6X3ECNK3PpBP+AmxMkkjewWxEHVZmEM8x3g1QxlfwuJXhLXVQ4GJiGR1dLIXo20fp9MKHtAIQrQhDn42J/4eXhX3OMItiB9ZZryaGteHMtJ507WDfeFrDWIhc6VZtLFOFhGujgLY4FbQteL8RBUI4vxYRXZo4Mk0Y7bDCArH1Cc+3kbxZa9EEo7QAenVIAOTqkAHZxSATo4NVmBWkfoDPQPpV6IZ084qtoKxII4HzFSzUSCaNYNpQK4Mwjxb9gDWSYeRvpgV+2IT8J/kIjp0xCXsELOAHLF1RDU0WhGAln/GjOius+0EjEpn0S8Q2zNLYEdhT7AmYg3c1GVHmcdnIR4GGsHlFIBCmYo4r5uO6krKX2E9PE69P77iIuYPu3DJb0JnMDHvoKlAhTEQGQdopXkSlmDnK34W8Th9HNUuqM/o+4PB8vsg4whjkN8B11bmDnAN4HDKBXAK90Qt+6kRZxFwJXIcS02J5QwcQpgox9wIjIYXJNQjuWWcnmhIyrAvoiDaNSP3Yb4Eowh3Ug/rQKE6QOcDbwRU65SAXLSBRnVtxHdl09EtpBlIY8CBHRCmvuks5m8KcAyJXiUL8F1Rn/gKaJ/0EnY9y2kwYcCBDQjihDVIrQCP8hT2AC9M+dEH0LrjF2R0bjth3wF2MdTPj4VIKAb8HOiZydX477h1Yre3Dgpj7A6ZDTm9Czo5/XRN3kpQgECPg28jF0JHibdzuQKTlXCVlLAOfU1Yjz20fUCihnrFKkAIMp6BXYleJGMSjDYIsy2ibPRGI+4i9l+qG0KyrNoBQg4DvNA6XZkm3wmN7F7laA2ZArUqByA/QdaTHQcAR9USwFAgmvaWoKnyXD+0g6Yb8sq4GueCltNhhMfEOIucg6aYqiWAgwhPmbDNDKs9F4QIexW3Lc81ZpNkeXWuPlzkUpQDQVIqvwg/cpFWPhEsGZkBnBwxL0vIsEi55F8unit+ArmWcQzEAXWAa3vRhZYfO16AlGA8N7DM5CNKb4YgoTW1XsL30C6tnComXbEjnALKeiGBFBI0q5GSa8hg6Ix2McEvluCIluAqDd/NmLkOghzQWs5Et01FU2I5qbdpVNvaRnitRNQDSUoSgGiKv91pPIDTrPc8ygZfT+3RqJ1NKoiHGF5pqKVoAgFcK18kJdXz+jakWmjFZdTQbshodb2RJSiL+5bw6rBIMQhM8xtRB9gPQbZ7FnEmMD3GCCqz5+NmK9tMYU2R8Y9YfeypcgexHk5ylKX9MDcnfsuyRaxoloCny1AmjdfM9ryvayxC+qan2E+6DGO3x2NXQmmkP1oW18KEFX5c3G3YuquoIUMA8J6ZnPMpeznMZ0p48jbEgThc69BLHBa1hLgScSjaBxuZto8b36YwZgriOtUK/BTzB9p3wxy0ipBMxIb+BHc/AjD6UNk/LFHRFl8VX6AXjhqQU59a3i6IAOa8MM9mUOeqxKMJluQDFvSwSF8Vz7IoF37PP4xo6y6YjzmD3VITplxSrAFchyuj4oPp1XIhpBt8V/5AVcrmYvx6wNRE6ZS+VCzSdf3RxGlBHF7BT5AHEjPRKxxuyJTwd0QRb0QMaFH+SEGXUMRlQ8S3l/LPtyD3JqxOaaTxwSP8qOUQKeZyJKsS6h3kMq8AHkDk2T7qvyA6Ur+/R5lV53jqHyYNuyh3AMOQ0a/pyN9ogtxSrACOfsg68baTYE/RcgOKr9fRtlRnKjyaCU5EGbdMoXKh4kb/O2j7m3hY3//uGled+zLyjOB7XKV/mPGYvdbuNKT/DB9MWcshxaQT+F0xpz7xzX/5xL9ps0HfoN9D8C1lvufwzQ5h9kamSWchpyNfArimRQX9Ww3xFagW7QDY76TlccoXtEKZxfMiomaU4OsX8QNvsKtyLGIK9Xulu/MJtq8PBrxyo3K50PkSJyoGMX7YXY3b+J/pH6eyuNVz/KrwimY/bFe1NF8Huk2bA6iOq3EtC+sxh6Isg8ymEqSGe53r8BuZj7Dcr9vb6L9LHm4jonqholUPoA+2j6OrZG9d3F7Am3pdxZZ2yG7dtPICdIjmE6bzUgXE77vPfw6q2yIOQ4Y4VF+VXiayge4IoOMJmRweANuvg4tiNVuNFIhGxOtRB8irnOPEr0TqR1pkbTdYn/LfVFL2lnR5dYnrtQ1TZiBFiIdHRzpuVZG3J7BcJqPRCXXny9B9unpAd9QpNWyjQ9OsZRnhrrn9pzPp7lTyc8Tmr/q9Mb8Eb/sUf5RFvkuaQ7Jm0q/jjnQs+1R0C5di/Bj4Qy4RMmf1khxAm0BlN7xKF8bRlbhFsx5M+AnyIwjysPqz2vvCbMxYioOM1ld96LSrzEv+lCKPh5lF85emG+fzwe4Wcm+CRk4noX7wHEWEl6+r0V+F8yQ9Q+re5ox7Rx5F7nCaCvqGx5lF85IsjXRWdNPQ3k3AUem+G4L8HtMb9yL1X3LMFsN2xijqPR+I3UB1Q5qGQ793k667qYTEuFLb7J5Sl3bDp/U5xwVyYaNpAA+B0MutKtrbZlbjSy1Xkp0pWnTse331vno6yLp0kgK4OvwJ1f0m6lPJOuC7Lw5GXHbHotE/AwGji8h+yrDaMtbK+apJGlOTMnLykaKFWw7jWMU6Y51ieNsZKAZoGcds5AKC7dEByNTq9XIXoTb1n6vPzKn1zGAx1lk6tNXBqjrCUg8YR8chCxlByz1JLcq7Ig5iPHp4DhByX7Bcs+T6p63cHcIsQ1itSGmv+Ue10OlXDhXyX65kboA28GKWU4mjWKGut4Bsxu4Vl1vhbz1SQtSg4HrLJ9fpa73V9erkFbCF3ravMR6V53SjBns6TCP8jfBtNadoO5ZH3vYtunYVww7IUE29Jp/O2KW1Whfxyl5HsjCZCX/Rs/yC0dHyTrfs/z7lPxZmCP3fbDvB2hFdgZdhjiCTkSmjrb592JMt69hmGsGR3l8NjCV9yzP8gtHL2bYjqLNg83YYwuT833cHE1s6QPER0Gjn20l8R5IaellKXPDBQU9h8oH0GcF52U9zCjeC7GPNb5F+q3z87BX/sGWey/29EwBe1vy8OXfWDVsa+aDPedxtCUPPZ8P2B7pNpJag9XIjhzbgtamiI1Bv/1xp4dk4VyVxxKqb1zLTQ/M/vd4z3k0I1474TzakKPnoxiGrB1MRRaO5iPjlbuR7iLO9UqvD7QjxiXfaKfQOwrIoyo8QeWDFBHadhvMVbmzC8gHxIMonM9D+D/OryfmZpoTKCCjanC3uh5B8kEOaVkP84xhV4NPWrqr6yKa5tGYi2lTPedRNYZhNplHe5Q/BHjbksdBHvMIo/0Q2hFXsCTjUhqmKfk+jUs1QdsDHvIkN2qL9qMUN2Aain024UsJ+mGOm870ILemnIw5SNspp8zByLRSV8RrFO8/Pw57VPNJ5FeCi5TMNdg9lhqKTTDNwnnMmgOw+/nPQU4VqwaHYN+Qei/ZYxb1wDRD6zFUwzIRU7OzhIEfhGzFqsWbr/HdEth2HBWx77AmDMHc7nVzShkDsB8LW803XxPVEkwmXUvQG1lBDct4FrfYkA3DXzF/KJup1UZ/6q/yA3woweWW74/0XtIaMxTzh3qa5BH7QOz7/1/Df3CGrIzF3h3cQfKewR0s332isJLWGL3bJWmaMxD7gK+eKj8gSgnuJFoJumBuNG3D38lodUcPzC3da5BzfTX9sJ/ZO5faN/tRRIWrieoObAd/XFOVktaQQzEf+hUqTcRRfX49vvmaqDGBbgn2xRwYz8OvX0HdcgPmD3QfMh7oh31711zq983XRLUEQWzjgZjLyu00oNNHVnpiH9hdhb3yG+HN10S1BHdjP2v46toUs3YMx4whYEtzaZw3XxMV5Vynx8luQWxoDiHeQ2cujVv5AUlK8A7mIRMdCu07GKRZNF6zH8UY7CFmlyHR1Do84xHT50fIKt+lrHuj4eFI/78YWfS5g5Q7if4PPe3csSCY6gAAAAAASUVORK5CYII=;" vertex="1" parent="1">
          <mxGeometry x="1390" y="230" width="128" height="128" as="geometry" />
        </mxCell>
        <mxCell id="CZ1LiMqnYSPfAvN4lERl-14" style="edgeStyle=orthogonalEdgeStyle;rounded=0;orthogonalLoop=1;jettySize=auto;html=1;exitX=0;exitY=0.5;exitDx=0;exitDy=0;entryX=0;entryY=0.25;entryDx=0;entryDy=0;" edge="1" parent="1" source="CZ1LiMqnYSPfAvN4lERl-10" target="CZ1LiMqnYSPfAvN4lERl-10">
          <mxGeometry relative="1" as="geometry" />
        </mxCell>
        <mxCell id="CZ1LiMqnYSPfAvN4lERl-22" value="&lt;font style=&quot;font-size: 18px;&quot;&gt;COBOL Code&lt;/font&gt;" style="text;html=1;align=center;verticalAlign=middle;whiteSpace=wrap;rounded=0;" vertex="1" parent="1">
          <mxGeometry x="30" y="380" width="120" height="30" as="geometry" />
        </mxCell>
        <mxCell id="CZ1LiMqnYSPfAvN4lERl-23" value="&lt;font style=&quot;font-size: 18px;&quot;&gt;BR Extractor&lt;/font&gt;" style="text;html=1;align=center;verticalAlign=middle;whiteSpace=wrap;rounded=0;" vertex="1" parent="1">
          <mxGeometry x="280" y="200" width="120" height="30" as="geometry" />
        </mxCell>
        <mxCell id="CZ1LiMqnYSPfAvN4lERl-24" value="&lt;font style=&quot;font-size: 18px;&quot;&gt;BR.json&lt;/font&gt;" style="text;html=1;align=center;verticalAlign=middle;whiteSpace=wrap;rounded=0;" vertex="1" parent="1">
          <mxGeometry x="520" y="200" width="120" height="30" as="geometry" />
        </mxCell>
        <mxCell id="CZ1LiMqnYSPfAvN4lERl-25" value="&lt;font style=&quot;font-size: 18px;&quot;&gt;BR Summarizer&lt;/font&gt;" style="text;html=1;align=center;verticalAlign=middle;whiteSpace=wrap;rounded=0;" vertex="1" parent="1">
          <mxGeometry x="730" y="200" width="130" height="30" as="geometry" />
        </mxCell>
        <mxCell id="CZ1LiMqnYSPfAvN4lERl-26" value="&lt;font style=&quot;font-size: 18px;&quot;&gt;BR_Summary.md&lt;/font&gt;" style="text;html=1;align=center;verticalAlign=middle;whiteSpace=wrap;rounded=0;" vertex="1" parent="1">
          <mxGeometry x="950" y="200" width="130" height="30" as="geometry" />
        </mxCell>
      </root>
    </mxGraphModel>
  </diagram>
</mxfile>
